# xmcd
#
# Track frame offsets: 
#        150
#        17737
#        26741
#        47905
#        69996
#        89939
#        108472
#        123626
#        148106
#        167354
#        186076
#        202564
#
# Disc length: 3007 seconds
#
# Revision: 0
# Processed by: cddbd v1.5.2PL0 Copyright (c) Steve Scherf et al.
# Submitted via: ExactAudioCopy v1.0b1
#
DISCID=a60bbd0c
DTITLE=DJ Kridlokk - UG-Solo
DYEAR=2011
DGENRE=Hip-Hop
TTITLE0=Pimeydes pt.2
TTITLE1=Sit ne delannu (feat. Lommo)
TTITLE2=Madafaka rädätädä
TTITLE3=Röökii and rötöksii
TTITLE4=Iha sama (feat. Striittiribu)
TTITLE5=GNXTA
TTITLE6=En mistää
TTITLE7=Lainaan enkä palauta (feat. Eevil stöö)
TTITLE8=Mit vit yks kaks
TTITLE9=Kuse viuluus (feat. Sltf and tuuttimörkö)
TTITLE10=Vakavaa paskaa mayn
TTITLE11=R.I.P.
EXTD=
EXTT0=
EXTT1=
EXTT2=
EXTT3=
EXTT4=
EXTT5=
EXTT6=
EXTT7=
EXTT8=
EXTT9=
EXTT10=
EXTT11=
PLAYORDER=
